<svg width="768" height="392" viewBox="0 0 768 392" fill="none" xmlns="http://www.w3.org/2000/svg" role="img" aria-label="Blue security shield illustration with search light">
  <defs>
    <linearGradient id="bg" x1="0" y1="0" x2="0" y2="392" gradientUnits="userSpaceOnUse">
      <stop stop-color="#05245D"/>
      <stop offset="1" stop-color="#021433"/>
    </linearGradient>
    <linearGradient id="panel" x1="384" y1="40" x2="384" y2="360" gradientUnits="userSpaceOnUse">
      <stop stop-color="#4BB5FF" stop-opacity="0.15"/>
      <stop offset="1" stop-color="#4BB5FF" stop-opacity="0.06"/>
    </linearGradient>
    <radialGradient id="glow" cx="0" cy="0" r="1" gradientUnits="userSpaceOnUse" gradientTransform="translate(394 202) rotate(90) scale(150 150)">
      <stop stop-color="#7BE9FF" stop-opacity="0.28"/>
      <stop offset="1" stop-color="#7BE9FF" stop-opacity="0"/>
    </radialGradient>
    <filter id="blur" x="130" y="178" width="292" height="214" filterUnits="userSpaceOnUse" color-interpolation-filters="sRGB">
      <feGaussianBlur stdDeviation="5"/>
    </filter>
  </defs>

  <rect width="768" height="392" fill="url(#bg)"/>
  <g opacity="0.16">
    <path d="M0 0H768V392H0V0Z" fill="url(#bg)"/>
    <path d="M-130 392L250 0H290L-90 392H-130Z" fill="#59C2FF"/>
    <path d="M-40 392L340 0H380L0 392H-40Z" fill="#59C2FF"/>
    <path d="M50 392L430 0H470L90 392H50Z" fill="#59C2FF"/>
    <path d="M140 392L520 0H560L180 392H140Z" fill="#59C2FF"/>
    <path d="M230 392L610 0H650L270 392H230Z" fill="#59C2FF"/>
    <path d="M320 392L700 0H740L360 392H320Z" fill="#59C2FF"/>
    <path d="M410 392L790 0H830L450 392H410Z" fill="#59C2FF"/>
  </g>

  <rect x="78" y="40" width="634" height="320" rx="20" fill="url(#panel)" stroke="#7CD9FF" stroke-opacity="0.18"/>
  <circle cx="394" cy="199" r="115" fill="#031B49" fill-opacity="0.55"/>
  <circle cx="394" cy="199" r="72" fill="url(#glow)"/>

  <g opacity="0.85">
    <path d="M394 152C425 152 451 176 451 206V214C451 246 427 275 394 286C361 275 337 246 337 214V206C337 176 363 152 394 152Z" fill="#123D89" stroke="#5CDBFF" stroke-width="4"/>
    <path d="M394 169C414 169 431 184 431 205V210C431 232 415 252 394 260C373 252 357 232 357 210V205C357 184 374 169 394 169Z" fill="#1B5FAE" stroke="#8EEBFF" stroke-width="2"/>
    <path d="M384 211L391 218L406 191" stroke="#B8F6FF" stroke-width="5" stroke-linecap="round" stroke-linejoin="round"/>
  </g>

  <rect x="375" y="292" width="38" height="15" fill="#5ECDF9" fill-opacity="0.65"/>
  <path d="M373 323H415L420 345H368L373 323Z" fill="#7CCFF1" fill-opacity="0.5"/>
  <path d="M372 360H416L407 374C405 378 401 380 397 380H391C387 380 383 378 381 374L372 360Z" fill="#8BD7FF" fill-opacity="0.42"/>

  <g filter="url(#blur)">
    <path d="M160 366L313 236L332 247L191 366H160Z" fill="#F2FDFF" fill-opacity="0.82"/>
  </g>

  <g fill="#D7F8FF" fill-opacity="0.5">
    <circle cx="112" cy="103" r="2"/><circle cx="142" cy="134" r="2"/><circle cx="166" cy="152" r="2"/>
    <circle cx="223" cy="102" r="2"/><circle cx="233" cy="152" r="2"/><circle cx="331" cy="101" r="2"/>
    <circle cx="443" cy="104" r="2"/><circle cx="522" cy="102" r="2"/><circle cx="632" cy="103" r="2"/>
  </g>
</svg>
